<?xml version="1.0" encoding="UTF-8"?>
<svg xmlns="http://www.w3.org/2000/svg" width="1400" height="460" viewBox="0 0 1400 460" fill="none" role="img" aria-labelledby="title">
  <title id="title">GhoulHouse horizontal logo - reverse-color</title>
  <g transform="translate(40 28) scale(0.78906250)" stroke-linecap="round" stroke-linejoin="round">
  <path d="M256 28 484 256 256 484 28 256Z" stroke="#FFFFFF" stroke-width="16"/>
  <path d="M132 229C169 211 201 183 226 151L257 112 289 153C315 184 346 211 381 229L355 241 334 220H178L157 241Z" stroke="#FFFFFF" stroke-width="12" fill="none"/>
  <path d="M178 223 188 342H324L334 223" stroke="#FFFFFF" stroke-width="12"/>
  <path d="M219 342C224 365 216 383 201 399L203 430M293 342C288 366 297 384 312 399L309 430" stroke="#FFFFFF" stroke-width="13"/>
  <path d="M203 430 176 445M203 430 205 457M203 430 229 446M309 430 282 446M309 430 307 457M309 430 337 444" stroke="#FFFFFF" stroke-width="12"/>
  <path d="M286 342V279C286 267 293 260 301 260S316 267 316 279V342" stroke="#FFFFFF" stroke-width="10"/>
  <circle cx="305" cy="302" r="4.5" fill="#FFFFFF" stroke="none"/>
  <rect x="202" y="252" width="66" height="62" rx="4" fill="#C83830" stroke="#FFFFFF" stroke-width="11"/>
  <path d="M235 254V312M204 283H266" stroke="#FFFFFF" stroke-width="7"/>
  <path d="M190 328 266 322M190 299 202 298M270 321 282 320" stroke="#FFFFFF" stroke-width="7"/>
</g>
<g fill="#FFFFFF" transform="translate(508.551437 258.474802) scale(0.11495210 -0.11495210)">
<path d="M335 249H641C602 167 522 119 424 119C279 119 168 227 168 369C168 433 195 503 237 548C280 594 345 620 416 620C502 620 574 585 619 522H780C732 655 580 752 419 752C202 752 30 584 30 371C30 154 205 -13 432 -13C544 -13 639 26 712 101C780 172 818 264 818 359V377H335Z" transform="translate(0 0)"/>
<path d="M68 0H205V310H469V0H606V739H469V441H205V739H68Z" transform="translate(912 0)"/>
<path d="M420 752C200 752 30 585 30 369C30 155 202 -13 419 -13C634 -13 800 154 800 369C800 582 631 752 420 752ZM418 620C555 620 662 510 662 368C662 225 558 119 418 119C278 119 168 229 168 369C168 512 276 620 418 620Z" transform="translate(1664 0)"/>
<path d="M68 739V271C68 192 80 141 108 97C151 29 231 -13 317 -13C398 -13 473 23 517 82C552 130 567 185 567 271V739H430V271C430 216 426 193 412 169C393 138 358 119 317 119C277 119 242 138 223 169C209 193 205 216 205 271V739Z" transform="translate(2576 0)"/>
<path d="M68 0H431V131H205V739H68Z" transform="translate(3288 0)"/>
<path d="M68 0H205V310H469V0H606V739H469V441H205V739H68Z" transform="translate(3800 0)"/>
<path d="M420 752C200 752 30 585 30 369C30 155 202 -13 419 -13C634 -13 800 154 800 369C800 582 631 752 420 752ZM418 620C555 620 662 510 662 368C662 225 558 119 418 119C278 119 168 229 168 369C168 512 276 620 418 620Z" transform="translate(4552 0)"/>
<path d="M68 739V271C68 192 80 141 108 97C151 29 231 -13 317 -13C398 -13 473 23 517 82C552 130 567 185 567 271V739H430V271C430 216 426 193 412 169C393 138 358 119 317 119C277 119 242 138 223 169C209 193 205 216 205 271V739Z" transform="translate(5464 0)"/>
<path d="M14 211C19 153 32 116 62 76C106 20 178 -13 257 -13C390 -13 493 90 493 224C493 286 471 338 427 378C398 405 375 417 302 445C232 471 230 472 220 478C193 495 179 518 179 545C179 589 210 620 255 620C301 620 329 592 333 542H475C472 598 459 636 429 673C389 723 325 752 256 752C136 752 41 659 41 542C41 449 95 378 195 341C294 304 301 301 323 284C345 266 357 240 357 209C357 156 316 119 257 119C196 119 163 149 157 211Z" transform="translate(6176 0)"/>
<path d="M68 0H465V131H205V303H454V434H205V608H465V739H68Z" transform="translate(6768 0)"/>
</g>
</svg>
