<svg xmlns="http://www.w3.org/2000/svg" width="1400" height="460" viewBox="0 0 1400 460" fill="none" role="img" aria-labelledby="title">
  <title id="title">GhoulHouse horizontal logo</title>
  <g transform="translate(40 28) scale(0.7890625)" stroke-linecap="round" stroke-linejoin="round">
    <path d="M256 28 484 256 256 484 28 256Z" stroke="#111111" stroke-width="16"/>
    <path d="M132 229C169 211 201 183 226 151L257 112 289 153C315 184 346 211 381 229L355 241 334 220H178L157 241Z" stroke="#111111" stroke-width="12" fill="none"/>
    <path d="M178 223 188 342H324L334 223" stroke="#111111" stroke-width="12"/>
    <path d="M219 342C224 365 216 383 201 399L203 430M293 342C288 366 297 384 312 399L309 430" stroke="#111111" stroke-width="13"/>
    <path d="M203 430 176 445M203 430 205 457M203 430 229 446M309 430 282 446M309 430 307 457M309 430 337 444" stroke="#111111" stroke-width="12"/>
    <path d="M286 342V279C286 267 293 260 301 260S316 267 316 279V342" stroke="#111111" stroke-width="10"/>
    <circle cx="305" cy="302" r="4.5" fill="#111111"/>
    <rect x="202" y="252" width="66" height="62" fill="#C9282D" stroke="#111111" stroke-width="11"/>
    <path d="M235 254V312M204 283H266" stroke="#111111" stroke-width="7"/>
    <path d="M190 328 266 322M190 299 202 298M270 321 282 320" stroke="#111111" stroke-width="7"/>
  </g>
  <text x="510" y="308" fill="#111111" font-family="Anton, Impact, sans-serif" font-size="190" letter-spacing="-3">GHOULHOUSE</text>
</svg>
